# xmcd
#
# Track frame offsets: 
#        187
#        19150
#        47275
#        66125
#        84550
#
# Disc length: 1378 seconds
#
# Revision: 1
# Processed by: cddbd v1.5.2PL0 Copyright (c) Steve Scherf et al.
# Submitted via: ExactAudioCopy v1.1
#
DISCID=33056005
DTITLE=Aaron Hall - Get A Little Freaky With Me [CD single)
DYEAR=1993
DGENRE=R&B
TTITLE0=Get A Little Freaky With Me (Freaky Radio Edit)
TTITLE1=Get A Little Freaky With Me (Extended Freaky Club Version)
TTITLE2=Get A Little Freaky With Me (Freakstrumental)
TTITLE3=Get A Little Freaky With Me (Freaky Suite)
TTITLE4=Get A Little Freaky With Me (Freaky Dub)
EXTD=
EXTT0=
EXTT1=
EXTT2=
EXTT3=
EXTT4=
PLAYORDER=
